<?xml version="1.0" standalone="no"?>
<!DOCTYPE svg PUBLIC "-//W3C//DTD SVG 20010904//EN"
 "http://www.w3.org/TR/2001/REC-SVG-20010904/DTD/svg10.dtd">
<svg version="1.0" xmlns="http://www.w3.org/2000/svg"
 width="736.000000pt" height="736.000000pt" viewBox="0 0 736.000000 736.000000"
 preserveAspectRatio="xMidYMid meet">
<metadata>
Created by potrace 1.14, written by Peter Selinger 2001-2017
</metadata>
<g transform="translate(0.000000,736.000000) scale(0.100000,-0.100000)"
fill="#000000" stroke="none">
<path d="M3620 6083 c-287 -18 -545 -137 -742 -341 -100 -104 -169 -206 -221
-327 -266 -615 58 -1319 698 -1514 224 -68 426 -68 650 0 369 113 660 415 755
785 63 246 44 497 -57 729 -102 236 -292 434 -528 553 -165 82 -376 126 -555
115z m210 -58 c240 -36 430 -132 604 -302 458 -452 407 -1217 -106 -1604 -476
-358 -1143 -267 -1500 205 -319 422 -279 1026 94 1393 135 134 255 210 414
262 172 57 326 72 494 46z"/>
<path d="M3472 5513 c-46 -22 -74 -67 -80 -124 l-4 -48 -29 14 c-59 31 -146 7
-180 -49 -17 -28 -19 -54 -19 -279 0 -224 2 -253 21 -309 48 -144 158 -251
298 -292 74 -22 258 -22 332 0 228 67 389 275 389 504 0 48 -7 79 -25 118 -23
51 -25 64 -25 215 0 143 -2 166 -20 194 -39 65 -120 81 -185 37 -37 -25 -38
-25 -59 -6 -61 56 -143 56 -204 -1 -15 -14 -25 -18 -30 -10 -15 23 -78 53
-112 53 -19 0 -50 -8 -68 -17z m117 -47 c41 -22 51 -55 51 -176 l0 -110 -100
0 -100 0 0 121 c0 120 0 121 29 150 33 33 75 38 120 15z m250 0 c41 -22 51
-55 51 -176 l0 -110 -100 0 -100 0 0 121 c0 120 0 121 29 150 33 33 75 38 120
15z m236 -21 c24 -23 25 -29 25 -165 l0 -141 -31 16 c-16 9 -52 19 -80 22
l-49 6 0 117 c0 104 2 120 21 144 28 35 80 36 114 1z m-711 -156 c24 -29 26
-37 26 -134 0 -97 -2 -105 -26 -134 -48 -57 -133 -36 -154 37 -14 53 -12 167
4 206 17 41 39 55 88 56 28 0 42 -7 62 -31z m673 -174 c79 -33 115 -94 114
-192 -2 -290 -283 -512 -589 -465 -98 16 -174 52 -238 116 -72 73 -103 143
-117 263 -6 55 -8 107 -4 116 5 15 9 15 34 2 43 -22 95 -19 137 10 l37 25 32
-37 c46 -52 98 -73 185 -73 l73 0 -25 -33 c-39 -51 -56 -101 -56 -166 0 -62
11 -81 35 -61 10 8 15 31 15 67 0 56 23 114 57 145 25 23 86 48 117 48 13 0
26 6 29 14 12 30 -16 36 -166 36 -117 0 -156 3 -183 16 -45 22 -84 87 -84 142
l0 42 280 0 c230 0 287 -3 317 -15z"/>
<path d="M2022 3555 c-555 -100 -949 -599 -919 -1160 18 -328 181 -635 446
-836 91 -69 266 -154 386 -186 90 -24 118 -27 275 -27 191 -1 249 8 401 64
152 55 319 166 424 283 102 112 196 268 239 400 45 134 50 170 51 357 0 163
-3 196 -24 275 -114 435 -458 753 -895 830 -106 18 -283 18 -384 0z m448 -63
c200 -53 356 -142 497 -282 157 -156 258 -343 299 -558 18 -95 18 -299 0 -395
-97 -507 -534 -867 -1051 -867 -571 0 -1035 444 -1062 1015 -24 535 345 1000
874 1100 109 20 341 13 443 -13z"/>
<path d="M2033 3105 c-42 -18 -62 -51 -70 -113 -6 -50 -6 -50 -37 -45 -44 7
-83 -11 -106 -49 -20 -32 -20 -46 -18 -428 l3 -395 32 -67 c38 -81 98 -142
179 -183 56 -28 65 -30 174 -29 199 2 267 38 470 255 234 250 230 244 230 283
0 26 -7 40 -30 59 -67 57 -153 60 -226 8 l-43 -30 -3 290 -3 291 -37 34 c-29
26 -46 34 -75 34 -21 0 -44 -4 -52 -9 -11 -7 -19 0 -32 29 -33 74 -121 99
-186 52 -18 -13 -33 -19 -33 -14 0 12 -62 42 -87 42 -10 -1 -32 -7 -50 -15z
m90 -56 l27 -20 2 -262 3 -262 23 -3 22 -3 0 254 c0 141 3 263 6 272 7 17 54
45 77 45 8 0 25 -9 38 -19 24 -19 24 -21 29 -283 5 -255 6 -263 25 -263 19 0
20 8 25 218 5 202 7 220 24 233 32 23 72 17 95 -12 20 -26 21 -38 21 -320 l0
-294 -85 0 c-46 0 -107 -5 -135 -11 -55 -12 -133 -64 -138 -92 -6 -31 26 -30
63 1 47 42 90 52 220 52 l111 0 39 40 c44 45 91 70 132 70 35 0 93 -34 93 -56
0 -17 -270 -316 -346 -383 -90 -79 -208 -117 -339 -109 -122 8 -222 76 -274
187 l-26 56 -3 387 c-3 379 -2 388 18 408 27 27 54 25 79 -6 19 -25 21 -40 21
-200 0 -166 1 -174 20 -174 18 0 19 10 22 266 3 266 3 266 27 285 30 24 52 24
84 -2z"/>
<path d="M4960 3555 c-440 -74 -778 -387 -902 -833 -19 -66 -22 -104 -22 -267
-1 -177 1 -197 27 -290 52 -188 154 -364 291 -501 214 -212 484 -324 786 -324
302 0 555 100 768 305 110 104 172 188 232 310 177 361 155 778 -60 1105 -245
373 -688 569 -1120 495z m452 -68 c312 -82 583 -313 709 -606 67 -157 84 -243
83 -431 -1 -145 -4 -177 -27 -262 -107 -402 -432 -707 -835 -784 -98 -19 -299
-18 -402 2 -463 87 -815 475 -859 947 -52 545 312 1035 854 1148 130 27 343
21 477 -14z"/>
<path d="M5074 3190 c-25 -12 -49 -35 -60 -55 -18 -34 -18 -38 9 -232 15 -109
27 -203 27 -209 0 -6 -18 -11 -41 -11 -50 0 -87 -26 -114 -79 l-20 -39 -39 13
c-50 16 -102 2 -141 -38 l-30 -31 -3 -211 c-3 -188 -1 -218 17 -277 109 -356
559 -435 774 -135 66 91 78 150 87 414 5 129 12 244 15 255 3 11 21 136 40
278 31 230 34 261 21 291 -29 69 -106 101 -171 70 -59 -28 -69 -55 -100 -274
-15 -110 -30 -199 -31 -197 -2 2 -17 92 -33 201 -18 117 -36 207 -46 222 -36
56 -101 74 -161 44z m105 -57 c26 -27 29 -42 69 -323 24 -162 47 -299 52 -304
25 -25 39 28 80 309 23 160 48 300 55 312 17 26 66 38 94 23 12 -6 28 -21 37
-34 14 -22 12 -47 -26 -318 -23 -161 -44 -339 -47 -395 l-6 -102 -39 31 c-57
45 -101 57 -205 58 l-93 0 0 92 c0 75 -4 100 -24 142 -26 58 -84 435 -72 480
6 26 47 55 79 56 10 0 31 -12 46 -27z m-101 -529 c19 -22 22 -36 22 -119 l0
-94 -85 -3 -85 -3 0 95 c0 72 4 101 16 118 33 48 92 50 132 6z m-220 -100 c19
-22 22 -36 22 -114 0 -49 -5 -100 -11 -113 -23 -50 -95 -62 -134 -22 -23 22
-25 31 -25 129 l0 104 32 27 c38 32 81 29 116 -11z m518 -183 c84 -38 123
-128 104 -239 -23 -134 -101 -239 -220 -296 -59 -28 -74 -31 -165 -31 -90 0
-106 3 -158 28 -78 39 -153 115 -190 196 -24 51 -32 82 -35 148 l-5 83 38 -16
c44 -18 92 -12 126 15 22 18 23 17 52 -16 38 -43 73 -61 126 -64 22 -2 41 -5
41 -7 0 -2 -11 -17 -25 -34 -30 -36 -47 -95 -43 -151 2 -34 7 -42 23 -42 17 0
21 8 25 60 8 98 56 154 143 169 28 5 37 12 37 26 0 19 -7 20 -100 20 -119 0
-170 17 -200 65 -19 31 -27 85 -13 98 3 4 94 7 202 7 170 0 202 -3 237 -19z"/>
</g>
</svg>
